<?xml version="1.0" encoding="UTF-8"?>
<!DOCTYPE svg  PUBLIC '-//W3C//DTD SVG 1.1//EN'  'http://www.w3.org/Graphics/SVG/1.1/DTD/svg11.dtd'>
<svg enable-background="new 0 0 100 100" version="1.1" viewBox="0 0 100 100" xml:space="preserve" xmlns="http://www.w3.org/2000/svg">
	<path d="m83.82 16.406h-18.041c0.802 1.938 1.349 4.035 1.554 6.25 0.838 0.506 1.401 1.423 1.401 2.474 0 1.21-0.746 2.244-1.799 2.675-0.338 0.138-0.707 0.216-1.095 0.216-0.474 0-0.919-0.117-1.315-0.319-0.934-0.479-1.573-1.45-1.573-2.571 0-0.891 0.407-1.681 1.04-2.211-0.225-2.36-0.889-4.563-1.883-6.514h-24.207c-0.995 1.952-1.659 4.156-1.882 6.517 0.631 0.53 1.037 1.318 1.037 2.208 0 1.121-0.641 2.093-1.575 2.571-0.396 0.202-0.842 0.319-1.315 0.319-0.387 0-0.755-0.078-1.093-0.216-1.055-0.431-1.799-1.465-1.799-2.675 0-1.053 0.564-1.972 1.406-2.478 0.205-2.214 0.752-4.311 1.553-6.247h-18.055l-2.314 73.963c0 2.557 2.073 4.631 4.631 4.631h63.009c2.56 0 4.632-2.074 4.632-4.631l-2.317-73.962z"/>
	<path d="m34.256 25.892c0.654 0 1.194-0.514 1.23-1.171l5e-3 -0.117c0.055-9.205 6.566-16.694 14.516-16.694 7.956 0 14.468 7.497 14.515 16.711l6e-3 0.101c0.035 0.656 0.574 1.17 1.229 1.17 0.651 0 1.19-0.513 1.229-1.172l5e-3 -0.106c-0.091-10.572-7.709-19.174-16.984-19.174-9.327 0-16.945 8.612-16.979 19.281 0.035 0.656 0.574 1.171 1.228 1.171z"/>
</svg>
