<?xml version="1.0" encoding="UTF-8"?>
<svg version="1.1" viewBox="0 0 500 500" xmlns="http://www.w3.org/2000/svg">
 <defs>
  <linearGradient id="c" x1="83.333" x2="371.92" y1="22.5" y2="382.21" gradientTransform="matrix(1.3193 0 0 1.3193 -82.181 -83.888)" gradientUnits="userSpaceOnUse">
   <stop stop-color="#fff" offset="0"/>
   <stop stop-color="#005e91" offset="1"/>
  </linearGradient>
  <linearGradient id="d" x1="159.27" x2="260.59" y1="62.982" y2="199.34" gradientTransform="matrix(1.161 0 0 1.161 -46 -72.613)" gradientUnits="userSpaceOnUse">
   <stop stop-color="#fff" offset="0"/>
   <stop stop-color="#005e91" offset="1"/>
  </linearGradient>
 </defs>
 <path d="m190.77 29.665-19.193 84.899c-1.4453 6.3886 2.5719 12.741 8.9616 14.186 6.3896 1.4453 12.741-2.573 14.186-8.9616l14.984-66.178 66.795 0.65307 14.549 86.459c1.0869 6.4607 7.2184 10.81 13.678 9.7234 6.4596-1.0858 10.81-7.1818 9.7234-13.641l-17.814-106.05-105.87-1.0884z" fill="url(#d)"/>
 <path d="m202.26 60.743-12.781 56.525c-40.296-1.4673-77.675-2.8865-77.675-2.8865s-7.165 56.211-6.143 101.18c0.56121 24.711-3.0506 83.827-3.0506 147.19 0 44.896-7.1745 92.971-7.1745 92.971l171.68 4.1228 143.11 2.0201-3.0924-74.583s2.0766-103.23-0.98969-135.93c-3.0663-32.703 0-132.84 0-132.84s-30.039 3.2784-73.593 3.0516l-10.019-59.535-120.26-1.2781zm21.521 27.211 75.902 0.78339 5.4428 32.283c-22.573-0.58629-54.456-1.6136-88.189-2.8039l6.8442-30.262z" fill="url(#c)"/>
 <path d="m196.63 307.74 87.547 0.58315 20.092-76.496" fill="none" stroke="#466aa4" stroke-linecap="round" stroke-linejoin="round" stroke-width="10.279"/>
 <path d="m284.18 308.32 8.7546 45.525" fill="none" stroke="#466aa4" stroke-linecap="round" stroke-linejoin="round" stroke-width="10.279"/>
 <path d="m196.63 307.74-16.011-48.958" fill="none" stroke="#466aa4" stroke-linecap="round" stroke-linejoin="round" stroke-width="10.279"/>
 <path d="m292.93 353.85-74.234-0.51105" fill="none" stroke="#466aa4" stroke-linecap="round" stroke-linejoin="round" stroke-width="10.279"/>
 <path d="m180.62 258.78 116.27 0.39922" fill="none" stroke="#466aa4" stroke-linecap="round" stroke-linejoin="round" stroke-width="10.279"/>
 <path d="m210.99 258.89 7.2717 48.999" fill="none" stroke="#466aa4" stroke-linecap="round" stroke-linejoin="round" stroke-width="10.279"/>
 <path d="m268.33 259.08-7.7179 49.083" fill="none" stroke="#466aa4" stroke-linecap="round" stroke-linejoin="round" stroke-width="10.279"/>
 <path d="m188.77 283.72 102.11-1.3283" fill="none" stroke="#466aa4" stroke-linecap="round" stroke-linejoin="round" stroke-width="10.279"/>
 <path d="m239.66 258.99-0.41594 49.038" fill="none" stroke="#466aa4" stroke-linecap="round" stroke-linejoin="round" stroke-width="10.279"/>
 <rect width="500" height="500" fill-opacity="0"/>
</svg>
